<svg width="489" height="123" viewBox="0 0 489 123" fill="none" xmlns="http://www.w3.org/2000/svg">
<path d="M174.447 31.0121L152.478 90.8707H159.672L165.408 75.2886H191.655L197.392 90.8707H204.752L182.533 31.0121H174.447ZM178.465 39.48C178.53 39.6705 178.594 39.8643 178.654 40.0625L189.349 68.9827H167.629L178.241 40.0761C178.317 39.8867 178.392 39.6853 178.465 39.48Z" fill="#94979c"/>
<path d="M226.864 68.2623L220.059 66.539C216.051 65.5554 214.019 63.6443 214.019 60.8599C214.019 56.9433 216.902 54.7861 222.135 54.7861C227.141 54.7861 230.1 57.2463 230.252 61.5357L230.272 62.0848H236.9L236.88 61.4964C236.623 53.7713 231.036 48.9727 222.299 48.9727C213.381 48.9727 207.39 53.7822 207.39 60.9412C207.39 66.6646 210.981 70.4654 218.063 72.2373L224.868 73.96C229.745 75.1593 230.744 77.1309 230.744 79.7221C230.744 83.6791 227.312 86.0416 221.562 86.0416C216.353 86.0416 213.117 83.4001 213.117 79.1479V78.5786H206.572V79.1479C206.572 86.8675 212.488 91.855 221.644 91.855C231.002 91.855 237.29 86.8806 237.29 79.4759C237.29 73.5255 234.074 70.0669 226.864 68.2623Z" fill="#94979c"/>
<path d="M272.958 77.6686C271.476 82.506 266.897 85.6316 261.293 85.6316C253.574 85.6316 248.587 79.6746 248.587 70.455C248.587 61.2791 253.857 55.1142 261.702 55.1142C267.248 55.1142 271.527 58.2206 272.869 63.2213L272.983 63.6427H279.761L279.632 62.9669C278.018 54.4657 270.948 48.9727 261.619 48.9727C249.811 48.9727 241.877 57.6388 241.877 70.5369C241.877 83.2882 249.679 91.855 261.293 91.855C270.571 91.855 277.832 86.4029 279.791 77.9645L279.953 77.2663H273.081L272.958 77.6686Z" fill="#94979c"/>
<path d="M315.396 78.2554C313.994 83.2418 309.99 85.8778 303.816 85.8778C295.842 85.8778 290.978 80.7429 290.403 71.7624H321.92V68.4048C321.92 56.7818 314.447 48.9727 303.325 48.9727C291.796 48.9727 283.745 57.8063 283.745 70.455C283.745 83.2549 291.777 91.855 303.734 91.855C313.265 91.855 319.718 87.13 321.903 78.5507L322.084 77.8405H315.513L315.396 78.2554ZM290.623 66.5226C291.77 59.2616 296.479 54.9504 303.325 54.9504C310.308 54.9504 314.885 59.4723 315.118 66.5226H290.623Z" fill="#94979c"/>
<path d="M349.061 48.9727C343.597 48.9727 338.672 51.536 335.825 55.7621L335.144 50.0387H329.154V90.8708H335.945V69.5522C335.945 60.6142 340.48 55.2784 348.077 55.2784C355.012 55.2784 358.243 59.0847 358.243 67.2563V90.8708H365.034V66.0259C365.034 54.8696 359.511 48.9727 349.061 48.9727Z" fill="#94979c"/>
<path d="M404.961 55.9962C401.975 51.4481 397.076 48.9726 390.945 48.9726C379.479 48.9726 371.775 57.6387 371.775 70.5369C371.775 83.2882 379.38 91.8549 390.698 91.8549C397.195 91.8549 402.295 89.1622 405.268 84.2205L405.738 90.8707H411.753V29.946H404.961V55.9962ZM404.88 70.3726C404.88 79.5922 399.699 85.5491 391.682 85.5491C383.764 85.5491 378.648 79.5922 378.648 70.3726C378.648 61.153 383.764 55.196 391.682 55.196C399.699 55.196 404.88 61.153 404.88 70.3726Z" fill="#94979c"/>
<path d="M450.505 78.2559C449.104 83.2418 445.1 85.8778 438.926 85.8778C430.952 85.8778 426.089 80.7429 425.513 71.7624H457.031V68.4048C457.031 56.7818 449.557 48.9727 438.434 48.9727C426.906 48.9727 418.855 57.8063 418.855 70.455C418.855 83.2549 426.888 91.855 438.844 91.855C448.376 91.855 454.828 87.13 457.013 78.5507L457.194 77.8405H450.622L450.505 78.2559ZM425.734 66.5226C426.879 59.2616 431.588 54.9504 438.434 54.9504C445.418 54.9504 449.995 59.4723 450.229 66.5226H425.734Z" fill="#94979c"/>
<path d="M481.877 49.137C477.104 49.137 473.117 51.1796 470.994 54.5901L470.691 50.0387H464.263V90.8708H471.055V67.6668C471.055 60.4396 475.528 55.7697 482.45 55.7697H486.132V49.6648L485.694 49.5611C484.197 49.209 483.085 49.137 481.877 49.137Z" fill="#94979c"/>
<path d="M60.4251 9.78164C88.9188 9.78164 112.1 32.9823 112.1 61.5C112.1 90.0178 88.9188 113.218 60.4251 113.218C31.9314 113.218 8.75 90.0178 8.75 61.5C8.75 32.9823 31.9314 9.78164 60.4251 9.78164ZM60.4251 3.63135C28.4919 3.63135 2.60486 29.5402 2.60486 61.5C2.60486 93.4598 28.4919 119.369 60.4251 119.369C92.3583 119.369 118.245 93.4601 118.245 61.5C118.245 29.54 92.3584 3.63135 60.4251 3.63135Z" fill="#0B8759"/>
<path d="M78.822 93.0924H45.8438L42.3002 86.9421H68.1378L50.9124 57.3111L30.2721 93.0924H23.1757L50.8928 45.0454L78.822 93.0924Z" fill="#0B8759"/>
<path d="M72.0494 20.6539L58.0601 44.9051L61.6469 50.9893L72.069 32.9239L86.0265 56.9485H65.1599L68.7856 63.0988H89.5996L99.0577 79.3788L106.147 79.3466L72.0494 20.6539Z" fill="#0B8759"/>
</svg>
