<svg width="49" height="49" viewBox="0 0 49 49" fill="none" xmlns="http://www.w3.org/2000/svg">
<path d="M24.8701 0.410156C38.1001 0.410156 48.8701 11.1802 48.8701 24.4102C48.87 37.6401 38.1001 48.4102 24.8701 48.4102C11.6402 48.4102 0.870217 37.6401 0.870117 24.4102C0.870117 11.1802 11.6401 0.410156 24.8701 0.410156ZM24.8701 3.16016C13.1501 3.16016 3.62012 12.6902 3.62012 24.4102C3.62022 36.1301 13.1502 45.6602 24.8701 45.6602C36.5901 45.6602 46.12 36.1301 46.1201 24.4102C46.1201 12.6902 36.5901 3.16016 24.8701 3.16016ZM31.6807 37.625H16.3301C15.5707 37.625 14.9551 37.0094 14.9551 36.25C14.9551 35.4906 15.5707 34.875 16.3301 34.875H26.8994L19.9141 22.8711L11.9404 36.6777C11.5606 37.3352 10.72 37.5603 10.0625 37.1807C9.40497 36.8009 9.17994 35.9603 9.55957 35.3027L19.9053 17.3887L31.6807 37.625ZM42.209 30.499L42.2734 30.624C42.561 31.2588 42.3263 32.0211 41.7109 32.3789C41.0955 32.7366 40.3175 32.5629 39.9082 31.999L39.8311 31.8809L35.9326 25.1748H27.9805C27.2211 25.1748 26.6055 24.5592 26.6055 23.7998C26.6056 23.0405 27.2211 22.4248 27.9805 22.4248H34.333L28.7031 12.7412L25.5605 18.1777L25.4844 18.2959C25.0765 18.8613 24.2982 19.037 23.6816 18.6807C23.0242 18.3006 22.7996 17.4592 23.1797 16.8018L28.6963 7.25879L42.209 30.499Z" fill="#12a66f"/>
</svg>